<?xml version="1.0" encoding="utf-8"?>
<!-- Generator: Adobe Illustrator 24.1.3, SVG Export Plug-In . SVG Version: 6.00 Build 0)  -->
<svg version="1.1" id="Layer_1" xmlns="http://www.w3.org/2000/svg" xmlns:xlink="http://www.w3.org/1999/xlink" x="0px" y="0px"
	 viewBox="0 0 32 32" style="enable-background:new 0 0 32 32;" xml:space="preserve">
<style type="text/css">
	.Black{fill:#737373;}
</style>
<path class="Black" d="M10,10H6V6h4V10z M26,6h-4v4h4V6z M10,22H6v4h4V22z M26,26h-4v4h4V26z M30,26h-4v-4h4V26z M20,20h10V3
	c0-0.6-0.4-1-1-1H3C2.4,2,2,2.4,2,3v26c0,0.6,0.4,1,1,1h17V20z M20,4h8v8h-8V4z M4,4h8v8H4V4z M12,28H4v-8h8V28z M14,22v-4h-4v-4h4
	v-4h4v4h4v4h-4v4H14z"/>
</svg>
